<svg width="87" height="16" viewBox="0 0 87 16" fill="none" xmlns="http://www.w3.org/2000/svg">
<path d="M4.61044 4.4C5.98377 4.4 7.03711 4.74667 7.77044 5.44C8.50377 6.12 8.87044 7.13333 8.87044 8.48V15H7.51044V13.36C7.19044 13.9067 6.71711 14.3333 6.09044 14.64C5.47711 14.9467 4.74377 15.1 3.89044 15.1C2.71711 15.1 1.78377 14.82 1.09044 14.26C0.397106 13.7 0.0504395 12.96 0.0504395 12.04C0.0504395 11.1467 0.37044 10.4267 1.01044 9.88C1.66377 9.33333 2.69711 9.06 4.11044 9.06H7.45044V8.42C7.45044 7.51333 7.19711 6.82667 6.69044 6.36C6.18377 5.88 5.44377 5.64 4.47044 5.64C3.80377 5.64 3.16377 5.75333 2.55044 5.98C1.93711 6.19333 1.41044 6.49333 0.97044 6.88L0.33044 5.82C0.863773 5.36667 1.50377 5.02 2.25044 4.78C2.99711 4.52667 3.78377 4.4 4.61044 4.4ZM4.11044 13.98C4.91044 13.98 5.59711 13.8 6.17044 13.44C6.74377 13.0667 7.17044 12.5333 7.45044 11.84V10.12H4.15044C2.35044 10.12 1.45044 10.7467 1.45044 12C1.45044 12.6133 1.68377 13.1 2.15044 13.46C2.61711 13.8067 3.27044 13.98 4.11044 13.98ZM18.1473 4.4C19.134 4.4 20.0273 4.62667 20.8273 5.08C21.6273 5.52 22.254 6.14667 22.7073 6.96C23.1606 7.77333 23.3873 8.7 23.3873 9.74C23.3873 10.78 23.1606 11.7067 22.7073 12.52C22.254 13.3333 21.6273 13.9667 20.8273 14.42C20.0273 14.8733 19.134 15.1 18.1473 15.1C17.2673 15.1 16.474 14.9133 15.7673 14.54C15.074 14.1667 14.514 13.6267 14.0873 12.92V15H12.7273V0.159999H14.1473V6.48C14.5873 5.8 15.1473 5.28667 15.8273 4.94C16.5206 4.58 17.294 4.4 18.1473 4.4ZM18.0473 13.84C18.7806 13.84 19.4473 13.6733 20.0473 13.34C20.6473 12.9933 21.114 12.5067 21.4473 11.88C21.794 11.2533 21.9673 10.54 21.9673 9.74C21.9673 8.94 21.794 8.22667 21.4473 7.6C21.114 6.97333 20.6473 6.49333 20.0473 6.16C19.4473 5.81333 18.7806 5.64 18.0473 5.64C17.3006 5.64 16.6273 5.81333 16.0273 6.16C15.4406 6.49333 14.974 6.97333 14.6273 7.6C14.294 8.22667 14.1273 8.94 14.1273 9.74C14.1273 10.54 14.294 11.2533 14.6273 11.88C14.974 12.5067 15.4406 12.9933 16.0273 13.34C16.6273 13.6733 17.3006 13.84 18.0473 13.84ZM30.582 15.1C29.5687 15.1 28.6553 14.8733 27.842 14.42C27.0287 13.9533 26.3887 13.3133 25.922 12.5C25.4553 11.6867 25.222 10.7667 25.222 9.74C25.222 8.71333 25.4553 7.79333 25.922 6.98C26.3887 6.16667 27.0287 5.53333 27.842 5.08C28.6553 4.62667 29.5687 4.4 30.582 4.4C31.5953 4.4 32.5087 4.62667 33.322 5.08C34.1353 5.53333 34.7687 6.16667 35.222 6.98C35.6887 7.79333 35.922 8.71333 35.922 9.74C35.922 10.7667 35.6887 11.6867 35.222 12.5C34.7687 13.3133 34.1353 13.9533 33.322 14.42C32.5087 14.8733 31.5953 15.1 30.582 15.1ZM30.582 13.84C31.3287 13.84 31.9953 13.6733 32.582 13.34C33.182 12.9933 33.6487 12.5067 33.982 11.88C34.3153 11.2533 34.482 10.54 34.482 9.74C34.482 8.94 34.3153 8.22667 33.982 7.6C33.6487 6.97333 33.182 6.49333 32.582 6.16C31.9953 5.81333 31.3287 5.64 30.582 5.64C29.8353 5.64 29.162 5.81333 28.562 6.16C27.9753 6.49333 27.5087 6.97333 27.162 7.6C26.8287 8.22667 26.662 8.94 26.662 9.74C26.662 10.54 26.8287 11.2533 27.162 11.88C27.5087 12.5067 27.9753 12.9933 28.562 13.34C29.162 13.6733 29.8353 13.84 30.582 13.84ZM48.3011 4.48V15H46.9411V13.08C46.5677 13.72 46.0544 14.22 45.4011 14.58C44.7477 14.9267 44.0011 15.1 43.1611 15.1C41.7877 15.1 40.7011 14.72 39.9011 13.96C39.1144 13.1867 38.7211 12.06 38.7211 10.58V4.48H40.1411V10.44C40.1411 11.5467 40.4144 12.3867 40.9611 12.96C41.5077 13.5333 42.2877 13.82 43.3011 13.82C44.4077 13.82 45.2811 13.4867 45.9211 12.82C46.5611 12.14 46.8811 11.2 46.8811 10V4.48H48.3011ZM57.8181 14.36C57.5514 14.6 57.2181 14.7867 56.8181 14.92C56.4314 15.04 56.0248 15.1 55.5981 15.1C54.6114 15.1 53.8514 14.8333 53.3181 14.3C52.7848 13.7667 52.5181 13.0133 52.5181 12.04V5.68H50.6381V4.48H52.5181V2.18H53.9381V4.48H57.1381V5.68H53.9381V11.96C53.9381 12.5867 54.0914 13.0667 54.3981 13.4C54.7181 13.72 55.1714 13.88 55.7581 13.88C56.0514 13.88 56.3314 13.8333 56.5981 13.74C56.8781 13.6467 57.1181 13.5133 57.3181 13.34L57.8181 14.36ZM75.1175 4.48V15H73.7575V13.08C73.3841 13.72 72.8708 14.22 72.2175 14.58C71.5641 14.9267 70.8175 15.1 69.9775 15.1C68.6041 15.1 67.5175 14.72 66.7175 13.96C65.9308 13.1867 65.5375 12.06 65.5375 10.58V4.48H66.9575V10.44C66.9575 11.5467 67.2308 12.3867 67.7775 12.96C68.3241 13.5333 69.1041 13.82 70.1175 13.82C71.2241 13.82 72.0975 13.4867 72.7375 12.82C73.3775 12.14 73.6975 11.2 73.6975 10V4.48H75.1175ZM81.9145 15.1C81.0612 15.1 80.2412 14.98 79.4545 14.74C78.6812 14.4867 78.0745 14.1733 77.6345 13.8L78.2745 12.68C78.7145 13.0267 79.2678 13.3133 79.9345 13.54C80.6012 13.7533 81.2945 13.86 82.0145 13.86C82.9745 13.86 83.6812 13.7133 84.1345 13.42C84.6012 13.1133 84.8345 12.6867 84.8345 12.14C84.8345 11.7533 84.7078 11.4533 84.4545 11.24C84.2012 11.0133 83.8812 10.8467 83.4945 10.74C83.1078 10.62 82.5945 10.5067 81.9545 10.4C81.1012 10.24 80.4145 10.08 79.8945 9.92C79.3745 9.74667 78.9278 9.46 78.5545 9.06C78.1945 8.66 78.0145 8.10667 78.0145 7.4C78.0145 6.52 78.3812 5.8 79.1145 5.24C79.8478 4.68 80.8678 4.4 82.1745 4.4C82.8545 4.4 83.5345 4.49333 84.2145 4.68C84.8945 4.85333 85.4545 5.08667 85.8945 5.38L85.2745 6.52C84.4078 5.92 83.3745 5.62 82.1745 5.62C81.2678 5.62 80.5812 5.78 80.1145 6.1C79.6612 6.42 79.4345 6.84 79.4345 7.36C79.4345 7.76 79.5612 8.08 79.8145 8.32C80.0812 8.56 80.4078 8.74 80.7945 8.86C81.1812 8.96667 81.7145 9.08 82.3945 9.2C83.2345 9.36 83.9078 9.52 84.4145 9.68C84.9212 9.84 85.3545 10.1133 85.7145 10.5C86.0745 10.8867 86.2545 11.42 86.2545 12.1C86.2545 13.02 85.8678 13.7533 85.0945 14.3C84.3345 14.8333 83.2745 15.1 81.9145 15.1Z" fill="#323264"/>
</svg>
