<svg width="0" height="0" class="hidden">
  <symbol xmlns="http://www.w3.org/2000/svg" viewBox="0 0 90 27" id="500+">
    <path d="M10.0596 10.268C13.6116 10.268 16.2276 10.976 17.9076 12.392C19.6116 13.808 20.4636 15.704 20.4636 18.08C20.4636 19.616 20.0796 21.02 19.3116 22.292C18.5436 23.54 17.3676 24.548 15.7836 25.316C14.2236 26.06 12.2916 26.432 9.98763 26.432C8.21163 26.432 6.45963 26.204 4.73163 25.748C3.02763 25.268 1.57563 24.596 0.375625 23.732L2.67963 19.268C3.63963 19.988 4.74363 20.552 5.99163 20.96C7.23963 21.344 8.52363 21.536 9.84363 21.536C11.3076 21.536 12.4596 21.248 13.2996 20.672C14.1396 20.096 14.5596 19.292 14.5596 18.26C14.5596 17.18 14.1156 16.364 13.2276 15.812C12.3636 15.26 10.8516 14.984 8.69163 14.984H2.24763L3.54363 0.799998H18.9156V5.48H8.40363L8.00763 10.268H10.0596ZM33.6298 26.432C31.5418 26.432 29.6818 25.916 28.0498 24.884C26.4178 23.852 25.1338 22.364 24.1978 20.42C23.2858 18.452 22.8298 16.112 22.8298 13.4C22.8298 10.688 23.2858 8.36 24.1978 6.416C25.1338 4.448 26.4178 2.948 28.0498 1.916C29.6818 0.883999 31.5418 0.368 33.6298 0.368C35.7178 0.368 37.5778 0.883999 39.2098 1.916C40.8418 2.948 42.1138 4.448 43.0258 6.416C43.9618 8.36 44.4298 10.688 44.4298 13.4C44.4298 16.112 43.9618 18.452 43.0258 20.42C42.1138 22.364 40.8418 23.852 39.2098 24.884C37.5778 25.916 35.7178 26.432 33.6298 26.432ZM33.6298 21.5C35.1658 21.5 36.3658 20.84 37.2298 19.52C38.1178 18.2 38.5618 16.16 38.5618 13.4C38.5618 10.64 38.1178 8.6 37.2298 7.28C36.3658 5.96 35.1658 5.3 33.6298 5.3C32.1178 5.3 30.9178 5.96 30.0298 7.28C29.1658 8.6 28.7338 10.64 28.7338 13.4C28.7338 16.16 29.1658 18.2 30.0298 19.52C30.9178 20.84 32.1178 21.5 33.6298 21.5ZM58.0634 26.432C55.9754 26.432 54.1154 25.916 52.4834 24.884C50.8514 23.852 49.5674 22.364 48.6314 20.42C47.7194 18.452 47.2634 16.112 47.2634 13.4C47.2634 10.688 47.7194 8.36 48.6314 6.416C49.5674 4.448 50.8514 2.948 52.4834 1.916C54.1154 0.883999 55.9754 0.368 58.0634 0.368C60.1514 0.368 62.0114 0.883999 63.6434 1.916C65.2754 2.948 66.5474 4.448 67.4594 6.416C68.3954 8.36 68.8634 10.688 68.8634 13.4C68.8634 16.112 68.3954 18.452 67.4594 20.42C66.5474 22.364 65.2754 23.852 63.6434 24.884C62.0114 25.916 60.1514 26.432 58.0634 26.432ZM58.0634 21.5C59.5994 21.5 60.7994 20.84 61.6634 19.52C62.5514 18.2 62.9954 16.16 62.9954 13.4C62.9954 10.64 62.5514 8.6 61.6634 7.28C60.7994 5.96 59.5994 5.3 58.0634 5.3C56.5514 5.3 55.3514 5.96 54.4634 7.28C53.5994 8.6 53.1674 10.64 53.1674 13.4C53.1674 16.16 53.5994 18.2 54.4634 19.52C55.3514 20.84 56.5514 21.5 58.0634 21.5ZM89.8016 15.596H83.5376V21.716H78.8936V15.596H72.6656V11.204H78.8936V5.084H83.5376V11.204H89.8016V15.596Z" fill="url(#paint0_linear_22721_7787)"></path>
    <defs>
      <linearGradient id="paint0_linear_22721_7787" x1="0.71875" y1="3.32" x2="92.1077" y2="3.75139" gradientUnits="userSpaceOnUse">
        <stop stop-color="#F0145A"></stop>
        <stop offset="1" stop-color="#EF8080"></stop>
      </linearGradient>
    </defs>
  </symbol>
  <symbol xmlns="http://www.w3.org/2000/svg" viewBox="0 0 26 26" id="star">
    <path d="M13.0971 0.552979C6.25258 0.552979 0.684082 6.12148 0.684082 12.966C0.684082 19.811 6.25258 25.38 13.0971 25.38C19.9416 25.38 25.5101 19.811 25.5101 12.966C25.5106 6.12148 19.9421 0.552979 13.0971 0.552979ZM19.9556 12.0585V12.059L16.3621 14.659L17.7461 18.889C17.7681 18.955 17.7796 19.0255 17.7796 19.0975C17.7796 19.467 17.4806 19.767 17.1111 19.767C16.9641 19.767 16.8291 19.72 16.7191 19.6405L13.0976 17.021L9.47608 19.6405C9.36608 19.72 9.23108 19.767 9.08458 19.767C8.71458 19.767 8.41508 19.4675 8.41508 19.0975C8.41508 19.025 8.42708 18.955 8.44908 18.889L9.83358 14.659L6.24008 12.059V12.0585C6.07208 11.9375 5.96308 11.74 5.96308 11.517C5.96308 11.1475 6.26208 10.8485 6.63208 10.8485H11.0806L12.4581 6.63798C12.5421 6.36448 12.7966 6.16548 13.0981 6.16548C13.3991 6.16548 13.6541 6.36448 13.7376 6.63798L15.1151 10.8485H19.5636C19.9331 10.8485 20.2326 11.1475 20.2326 11.517C20.2321 11.74 20.1231 11.9375 19.9556 12.0585Z" fill="#F0145A"></path>
  </symbol>
  <symbol xmlns="http://www.w3.org/2000/svg" viewBox="0 0 66 27" id="30+">
    <path d="M13.4612 11.06C15.6692 11.42 17.3612 12.248 18.5372 13.544C19.7132 14.816 20.3012 16.4 20.3012 18.296C20.3012 19.76 19.9172 21.116 19.1492 22.364C18.3812 23.588 17.2052 24.572 15.6212 25.316C14.0612 26.06 12.1412 26.432 9.86116 26.432C8.08516 26.432 6.33316 26.204 4.60516 25.748C2.90116 25.268 1.44916 24.596 0.249156 23.732L2.51716 19.268C3.47716 19.988 4.58116 20.552 5.82916 20.96C7.10116 21.344 8.39716 21.536 9.71716 21.536C11.1812 21.536 12.3332 21.26 13.1732 20.708C14.0132 20.132 14.4332 19.328 14.4332 18.296C14.4332 16.232 12.8612 15.2 9.71716 15.2H7.05316V11.348L12.2372 5.48H1.50916V0.799998H19.1492V4.58L13.4612 11.06ZM33.7938 26.432C31.7058 26.432 29.8458 25.916 28.2138 24.884C26.5818 23.852 25.2978 22.364 24.3618 20.42C23.4498 18.452 22.9938 16.112 22.9938 13.4C22.9938 10.688 23.4498 8.36 24.3618 6.416C25.2978 4.448 26.5818 2.948 28.2138 1.916C29.8458 0.883999 31.7058 0.368 33.7938 0.368C35.8818 0.368 37.7418 0.883999 39.3738 1.916C41.0058 2.948 42.2778 4.448 43.1898 6.416C44.1258 8.36 44.5938 10.688 44.5938 13.4C44.5938 16.112 44.1258 18.452 43.1898 20.42C42.2778 22.364 41.0058 23.852 39.3738 24.884C37.7418 25.916 35.8818 26.432 33.7938 26.432ZM33.7938 21.5C35.3298 21.5 36.5298 20.84 37.3938 19.52C38.2818 18.2 38.7258 16.16 38.7258 13.4C38.7258 10.64 38.2818 8.6 37.3938 7.28C36.5298 5.96 35.3298 5.3 33.7938 5.3C32.2818 5.3 31.0818 5.96 30.1938 7.28C29.3298 8.6 28.8978 10.64 28.8978 13.4C28.8978 16.16 29.3298 18.2 30.1938 19.52C31.0818 20.84 32.2818 21.5 33.7938 21.5ZM65.5321 15.596H59.2681V21.716H54.6241V15.596H48.3961V11.204H54.6241V5.084H59.2681V11.204H65.5321V15.596Z" fill="url(#paint0_linear_22721_7782)"></path>
    <defs>
      <linearGradient id="paint0_linear_22721_7782" x1="0.53125" y1="3.32" x2="68.0803" y2="3.55568" gradientUnits="userSpaceOnUse">
        <stop stop-color="#F0145A"></stop>
        <stop offset="1" stop-color="#EF8080"></stop>
      </linearGradient>
    </defs>
  </symbol>
  <symbol xmlns="http://www.w3.org/2000/svg" viewBox="0 0 26 22" id="bag">
    <path d="M14.2321 13.332V12.774C14.2321 12.0935 13.6806 11.542 13.0006 11.542C12.3201 11.542 11.7686 12.0935 11.7686 12.774V13.332C11.7686 14.0125 12.3201 14.564 13.0006 14.564C13.6801 14.564 14.2321 14.0125 14.2321 13.332Z" fill="#F0145A"></path>
    <path d="M15.0769 14.0136C14.8039 14.9071 13.9814 15.5631 13.0004 15.5631C12.0189 15.5631 11.1964 14.9071 10.9234 14.0136H2.43886C1.90336 14.0136 1.39736 13.8891 0.943359 13.6731V19.3066C0.943359 20.4066 1.84336 21.3066 2.94336 21.3066H23.0564C24.1564 21.3066 25.0564 20.4066 25.0564 19.3066V13.6736C24.6019 13.8896 24.0964 14.0141 23.5609 14.0141H15.0769V14.0136Z" fill="#F0145A"></path>
    <path d="M23.4775 3.8976H18.677C18.387 2.0846 16.8165 0.693604 14.923 0.693604H11.0765C9.18297 0.693604 7.61297 2.0846 7.32247 3.8976H2.52247C1.37647 3.8976 0.438965 4.7976 0.438965 5.8976V10.5141C0.438965 11.6186 1.33447 12.5141 2.43897 12.5141H10.829C10.8575 11.9386 11.1045 11.4216 11.495 11.0476C11.507 11.0361 11.521 11.0271 11.5335 11.0161C11.62 10.9366 11.71 10.8616 11.8085 10.7966C11.8435 10.7731 11.8835 10.7571 11.92 10.7361C12.001 10.6896 12.081 10.6411 12.1685 10.6051C12.237 10.5766 12.311 10.5601 12.383 10.5386C12.445 10.5201 12.504 10.4956 12.5685 10.4826C12.708 10.4541 12.8525 10.4391 13 10.4391C13.148 10.4391 13.292 10.4546 13.4315 10.4826C13.4955 10.4956 13.5545 10.5201 13.6165 10.5386C13.6885 10.5601 13.7625 10.5766 13.831 10.6056C13.918 10.6416 13.9975 10.6896 14.0785 10.7361C14.1155 10.7576 14.1555 10.7736 14.191 10.7971C14.2895 10.8616 14.379 10.9366 14.4655 11.0161C14.478 11.0276 14.4925 11.0366 14.5045 11.0486C14.8955 11.4226 15.142 11.9396 15.1705 12.5151H23.5605C24.665 12.5151 25.5605 11.6196 25.5605 10.5151V5.8986C25.561 4.7976 24.6235 3.8976 23.4775 3.8976ZM9.24797 3.8976C9.50297 3.1271 10.2215 2.5656 11.0765 2.5656H14.923C15.778 2.5656 16.4965 3.1271 16.7515 3.8976H9.24797Z" fill="#F0145A"></path>
  </symbol>
  <symbol  xmlns="http://www.w3.org/2000/svg" viewBox="0 0 24 28" id="flag">
    <path d="M23.1137 4.3054C22.9447 4.1374 22.7457 4.0529 22.5157 4.0529C22.4012 4.0529 22.1597 4.1469 21.7927 4.3324C21.4252 4.5184 21.0352 4.7254 20.6247 4.9564C20.2132 5.1859 19.7262 5.3939 19.1642 5.5799C18.6027 5.7654 18.0827 5.8594 17.6042 5.8594C17.1622 5.8594 16.7722 5.7754 16.4362 5.6069C15.3217 5.0849 14.3522 4.6954 13.5292 4.4384C12.7062 4.1819 11.8212 4.0529 10.8737 4.0529C9.23774 4.0529 7.37424 4.5849 5.28524 5.6469C4.85424 5.8619 4.54524 6.0284 4.34524 6.1504L4.14674 4.6949C4.59524 4.3054 4.88474 3.7379 4.88474 3.0974C4.88474 1.9239 3.93374 0.9729 2.76024 0.9729C1.58674 0.9729 0.635742 1.9239 0.635742 3.0974C0.635742 3.8629 1.04474 4.5284 1.65174 4.9024L4.52174 25.9474C4.60724 26.5739 5.14324 27.0284 5.75874 27.0284C5.81474 27.0284 5.87174 27.0249 5.92924 27.0174C6.61324 26.9234 7.09224 26.2939 6.99874 25.6099L5.84524 17.1514C7.93824 16.1129 9.74874 15.5894 11.2717 15.5894C11.9182 15.5894 12.5487 15.6859 13.1632 15.8809C13.7782 16.0764 14.2897 16.2884 14.6967 16.5179C15.1037 16.7479 15.5842 16.9609 16.1367 17.1549C16.6902 17.3499 17.2367 17.4474 17.7762 17.4474C19.1392 17.4474 20.7717 16.9339 22.6742 15.9074C22.9132 15.7834 23.0882 15.6614 23.1987 15.5419C23.3092 15.4224 23.3647 15.2524 23.3647 15.0314V4.9029C23.3647 4.6734 23.2812 4.4739 23.1137 4.3054Z" fill="#F0145A"></path>
  </symbol>
  <symbol xmlns="http://www.w3.org/2000/svg" viewBox="0 0 59 27" id="10+">
    <path d="M11.5127 0.799998V26H5.68067V5.48H0.640672V0.799998H11.5127ZM26.6903 26.432C24.6023 26.432 22.7423 25.916 21.1103 24.884C19.4783 23.852 18.1943 22.364 17.2583 20.42C16.3463 18.452 15.8903 16.112 15.8903 13.4C15.8903 10.688 16.3463 8.36 17.2583 6.416C18.1943 4.448 19.4783 2.948 21.1103 1.916C22.7423 0.883999 24.6023 0.368 26.6903 0.368C28.7783 0.368 30.6383 0.883999 32.2703 1.916C33.9023 2.948 35.1743 4.448 36.0863 6.416C37.0223 8.36 37.4903 10.688 37.4903 13.4C37.4903 16.112 37.0223 18.452 36.0863 20.42C35.1743 22.364 33.9023 23.852 32.2703 24.884C30.6383 25.916 28.7783 26.432 26.6903 26.432ZM26.6903 21.5C28.2263 21.5 29.4263 20.84 30.2903 19.52C31.1783 18.2 31.6223 16.16 31.6223 13.4C31.6223 10.64 31.1783 8.6 30.2903 7.28C29.4263 5.96 28.2263 5.3 26.6903 5.3C25.1783 5.3 23.9783 5.96 23.0903 7.28C22.2263 8.6 21.7943 10.64 21.7943 13.4C21.7943 16.16 22.2263 18.2 23.0903 19.52C23.9783 20.84 25.1783 21.5 26.6903 21.5ZM58.4285 15.596H52.1645V21.716H47.5205V15.596H41.2925V11.204H47.5205V5.084H52.1645V11.204H58.4285V15.596Z" fill="url(#paint0_linear_22721_7777)"></path>
    <defs>
      <linearGradient id="paint0_linear_22721_7777" x1="0.476562" y1="3.32" x2="61.0722" y2="3.50965" gradientUnits="userSpaceOnUse">
        <stop stop-color="#F0145A"></stop>
        <stop offset="1" stop-color="#EF8080"></stop>
      </linearGradient>
    </defs>
  </symbol>
</svg>